<svg width="36" height="36" xmlns="http://www.w3.org/2000/svg" xmlns:xlink="http://www.w3.org/1999/xlink">
    <defs>
        <path id="a" d="M0 0h24v24H0z"/>
    </defs>
    <g fill="none" fill-rule="evenodd">
        <rect fill="#E3E3E3" width="36" height="36" rx="18"/>
        <g transform="translate(6 6)">
            <mask id="b" fill="#fff">
                <use xlink:href="#a"/>
            </mask>
            <g mask="url(#b)">
                <path d="M12.02 0C5.936 0 1 4.768 1 10.649c0 3.474 1.722 6.558 4.385 8.502v4.673c0 .066.036.126.092.157a.165.165 0 0 0 .176-.014l3.945-2.929c.78.17 1.59.26 2.423.26 6.086 0 11.021-4.768 11.021-10.65C23.042 4.769 18.107 0 12.021 0" fill="#B4B4B4"/>
                <path d="M18.9 9.416c-.374-.421-.927-.636-1.644-.636-.397 0-.76.092-1.078.272a2.608 2.608 0 0 0-.618.476V6.081h-1.559v9.135h1.548v-3.412c0-.283.038-.54.11-.762.074-.22.174-.41.299-.562a1.29 1.29 0 0 1 .432-.347c.164-.08.34-.12.524-.12.319 0 .568.09.74.268.172.178.26.509.26.983v3.952h1.548v-3.887c0-.85-.189-1.493-.561-1.913M8.732 7.98c1.086 0 2.013.731 2.383 1.762h1.664c-.42-1.994-2.072-3.483-4.047-3.483-2.293 0-4.152 2.005-4.152 4.478 0 2.474 1.859 4.48 4.152 4.48 1.975 0 3.627-1.49 4.047-3.484h-1.664c-.37 1.03-1.297 1.762-2.383 1.762-1.412 0-2.557-1.235-2.557-2.758S7.32 7.98 8.732 7.98" fill="#F4F4F4"/>
            </g>
        </g>
    </g>
</svg>
