<svg width="1060" height="100" viewBox="0 0 1060 100" fill="none" xmlns="http://www.w3.org/2000/svg">
<mask id="mask0_5_2047" style="mask-type:alpha" maskUnits="userSpaceOnUse" x="0" y="0" width="1060" height="100">
<rect width="1060" height="100" fill="#00DD6D"/>
</mask>
<g mask="url(#mask0_5_2047)">
<g opacity="0.7">
<path d="M868.962 81.6652C868.777 81.9847 868.784 82.3646 868.981 82.656L887.521 110.052C887.716 110.339 888.065 110.496 888.435 110.461C888.805 110.426 889.138 110.205 889.307 109.883C895.734 97.5959 907.799 94.1175 920.538 90.6497C920.763 90.5884 920.989 90.5272 921.214 90.4658C933.599 87.0982 946.538 83.5797 953.776 71.078C953.961 70.7587 953.953 70.3791 953.757 70.0877C947.595 60.9613 941.414 51.8289 935.216 42.6906C935.021 42.4031 934.672 42.247 934.302 42.2821C933.932 42.3172 933.599 42.538 933.431 42.86C927.003 55.1469 914.937 58.6246 902.196 62.0921C901.972 62.1531 901.747 62.2142 901.522 62.2753C889.136 65.6427 876.195 69.161 868.962 81.6652Z" fill="#22D317" stroke="black" stroke-width="2" stroke-linecap="round" stroke-linejoin="round"/>
<path d="M875.887 84.6713L886.031 99.628C887.274 97.6274 889.542 97.7078 890.598 99.3952L890.696 99.5557C906.047 84.6582 930.262 88.7829 946.17 74.7092L946.055 74.5629C944.888 72.8684 945.216 70.1815 946.525 68.2715C946.583 68.1332 946.707 68.0363 946.785 67.9243L936.624 52.9326C936.558 53.0659 936.483 53.1956 936.399 53.3209C935.14 55.2865 932.942 55.2099 931.783 53.4981C916.264 68.0545 892.036 63.9847 876.317 78.3273C877.494 80.0451 877.164 82.7117 875.887 84.6713Z" fill="white"/>
<path d="M886.784 86.2631C886.39 85.6945 886.248 84.9986 886.385 84.3146C886.522 83.6306 886.928 83.0088 887.522 82.5735C887.824 82.3842 888.16 82.2517 888.511 82.1837C888.863 82.1157 889.222 82.1136 889.568 82.1775C889.914 82.2414 890.24 82.3701 890.526 82.5559C890.812 82.7417 891.053 82.9809 891.234 83.2593C891.598 83.8164 891.709 84.4931 891.545 85.147C891.381 85.8009 890.955 86.3808 890.355 86.7648C890.081 86.9672 889.766 87.1155 889.432 87.2003C889.098 87.2851 888.752 87.3045 888.416 87.2573C888.08 87.2101 887.761 87.0972 887.48 86.926C887.199 86.7548 886.962 86.529 886.784 86.2631V86.2631Z" fill="#22D317"/>
<path d="M933.361 70.1853C933.001 69.6042 932.894 68.9089 933.059 68.2361C933.224 67.5633 933.65 66.9615 934.254 66.549C934.511 66.3328 934.814 66.17 935.14 66.0719C935.467 65.9738 935.809 65.9428 936.144 65.9811C936.478 66.0195 936.796 66.1262 937.075 66.2938C937.355 66.4614 937.589 66.6858 937.761 66.9512C938.151 67.5332 938.297 68.2361 938.173 68.9314C938.049 69.6267 937.662 70.268 937.084 70.7378C936.797 70.9488 936.467 71.1028 936.118 71.1898C935.768 71.2767 935.406 71.2947 935.054 71.2426C934.703 71.1905 934.371 71.0694 934.079 70.8873C933.787 70.7051 933.543 70.466 933.361 70.1853V70.1853Z" fill="#00DD6D"/>
<path d="M898.151 80.154C894.335 74.6817 897.946 68.2257 904.678 66.765C911.77 65.2156 920.471 67.2523 924.496 73.0209C928.321 78.4962 924.701 84.9492 917.934 86.3688C910.828 87.9034 902.134 85.9482 898.151 80.154Z" fill="#22D317"/>
<path fill-rule="evenodd" clip-rule="evenodd" d="M903.646 71.642C903.627 71.6891 903.618 71.7393 903.62 71.7893C904.255 74.0904 904.873 76.3899 905.481 78.6826C904.269 78.9795 903.061 79.2905 901.859 79.6234L902.93 81.1633C903.926 80.8864 904.926 80.6248 905.928 80.3741C906.148 81.2077 906.366 82.0401 906.583 82.8712C906.607 83.0594 906.61 83.2497 906.591 83.4391C906.577 83.6141 906.528 83.7857 906.447 83.9455C906.563 83.9148 906.673 83.8858 906.778 83.8582C907.56 83.6519 908.051 83.5227 908.934 83.3136C909.052 83.2948 909.161 83.2432 909.247 83.1658C909.283 83.1319 909.311 83.0916 909.329 83.0474C909.347 83.0032 909.355 82.9561 909.353 82.9092L908.363 79.7854C909.356 79.5524 910.351 79.3265 911.346 79.1031L914.468 81.7411C914.576 81.8221 914.701 81.8838 914.834 81.9232C914.967 81.9384 915.102 81.9311 915.232 81.9015L917.767 81.3342C917.517 81.2582 917.275 81.1605 917.046 81.0424C916.95 80.9907 916.859 80.9282 916.769 80.8668C916.633 80.7737 916.5 80.683 916.361 80.6362L914.663 79.2449C914.593 78.9439 914.529 78.6668 914.468 78.4061C915.523 78.1703 916.577 77.9322 917.629 77.6868L920.652 80.3493C920.775 80.4071 920.905 80.451 921.039 80.4801C921.172 80.4934 921.307 80.486 921.437 80.4584C921.659 80.4026 921.856 80.3531 922.039 80.3071C922.69 80.1436 923.165 80.0242 923.938 79.821C923.696 79.7421 923.461 79.6466 923.235 79.5354C923.006 79.413 922.783 79.2795 922.569 79.1354L920.087 77.0962C921.114 76.8415 922.137 76.5759 923.156 76.2945L922.086 74.7545C920.862 75.0925 919.632 75.4078 918.399 75.7089L911.427 69.9801C911.317 69.9116 911.19 69.8689 911.057 69.8556C910.899 69.828 910.736 69.8327 910.579 69.8695C910.428 69.8982 910.29 69.9716 910.188 70.0786C910.148 70.1115 910.117 70.153 910.098 70.1992C910.079 70.2455 910.072 70.2951 910.079 70.3439L911.638 76.7829L904.981 71.4201C904.869 71.356 904.743 71.3136 904.612 71.2955C904.451 71.2643 904.284 71.2681 904.124 71.3064C903.975 71.3415 903.84 71.4139 903.733 71.5155C903.695 71.5518 903.665 71.5949 903.646 71.642ZM916.023 76.2726L913.875 74.3813C913.82 74.3626 913.755 74.3408 913.66 74.3672C913.565 74.3936 913.558 74.4108 913.549 74.4854C913.752 75.3621 913.911 76.0355 914.066 76.6908C914.068 76.6996 914.07 76.7085 914.072 76.7173C914.723 76.5708 915.373 76.4229 916.023 76.2726ZM909.685 77.6995L907.446 75.8073L907.446 75.8073C907.39 75.7886 907.335 75.7699 907.249 75.7994C907.164 75.829 907.135 75.8484 907.138 75.9176L907.836 78.1221C908.452 77.9793 909.068 77.8387 909.685 77.6995Z" fill="white"/>
</g>
<g opacity="0.7">
<path d="M83.4622 30.1623C83.3098 30.5181 83.3675 30.9157 83.6123 31.1963L105.58 56.3788C105.818 56.6515 106.195 56.771 106.569 56.692C106.943 56.613 107.255 56.3476 107.388 55.9966C112.222 43.1957 123.781 38.5009 136.049 33.737C136.269 33.6514 136.49 33.5659 136.711 33.4802C148.619 28.8601 161.09 24.0214 166.727 10.8691C166.879 10.5135 166.822 10.1162 166.577 9.83552C159.273 1.4449 151.95 -6.94977 144.608 -15.3485C144.37 -15.6208 143.993 -15.74 143.62 -15.6608C143.246 -15.5817 142.934 -15.3163 142.801 -14.9655C137.967 -2.16468 126.406 2.52957 114.136 7.29328C113.917 7.37854 113.697 7.46382 113.477 7.54918C101.567 12.1693 89.0944 17.0079 83.4622 30.1623Z" fill="#22D317" stroke="black" stroke-width="2.07735" stroke-linecap="round" stroke-linejoin="round"/>
<path d="M90.7763 32.4283L102.791 46.1731C103.776 44.0636 106.048 43.9067 107.314 45.4666L107.433 45.6152C120.842 29.2713 145.507 30.829 159.576 15.2424L159.442 15.1096C158.064 13.5541 158.05 10.8608 159.111 8.83414C159.152 8.69121 159.263 8.58237 159.326 8.46339L147.291 -5.3143C147.241 -5.17542 147.183 -5.03923 147.116 -4.90658C146.11 -2.82996 143.909 -2.67669 142.536 -4.25C128.916 11.7739 104.246 10.2718 90.3986 26.105C91.7908 27.6823 91.801 30.3558 90.7763 32.4283Z" fill="white"/>
<path d="M101.912 32.9254C101.447 32.4036 101.217 31.7298 101.266 31.0385C101.316 30.3473 101.642 29.6895 102.179 29.1966C102.455 28.9779 102.774 28.8117 103.115 28.7078C103.457 28.6039 103.815 28.5643 104.168 28.5915C104.521 28.6187 104.862 28.7121 105.171 28.8662C105.48 29.0202 105.751 29.2318 105.967 29.4884C106.4 30.002 106.597 30.6601 106.517 31.3243C106.437 31.9886 106.085 32.6071 105.536 33.0497C105.288 33.2785 104.993 33.4581 104.671 33.5769C104.349 33.6956 104.007 33.7509 103.665 33.7392C103.324 33.7275 102.992 33.6491 102.69 33.5089C102.388 33.3688 102.123 33.1701 101.912 32.9254V32.9254Z" fill="#22D317"/>
<path d="M146.154 12.0435C145.722 11.5058 145.526 10.8289 145.605 10.1457C145.685 9.46252 146.033 8.82244 146.582 8.35123C146.811 8.11045 147.092 7.9177 147.405 7.78656C147.718 7.65542 148.056 7.58904 148.394 7.59214C148.732 7.59524 149.063 7.66772 149.363 7.80448C149.663 7.94123 149.924 8.13896 150.13 8.38372C150.593 8.91904 150.828 9.59953 150.792 10.3007C150.757 11.0018 150.453 11.6768 149.937 12.2021C149.677 12.4409 149.368 12.6277 149.03 12.7503C148.693 12.8728 148.334 12.9284 147.977 12.9134C147.62 12.8984 147.274 12.8133 146.96 12.6634C146.646 12.5135 146.371 12.3023 146.154 12.0435V12.0435Z" fill="#00DD6D"/>
<path d="M112.401 25.6375C107.902 20.6207 110.681 13.856 117.204 11.7086C124.075 9.43598 133.006 10.544 137.75 15.8323C142.258 20.8511 139.47 27.6138 132.907 29.7241C126.019 31.9837 117.107 30.9555 112.401 25.6375Z" fill="#22D317"/>
<path fill-rule="evenodd" clip-rule="evenodd" d="M116.85 16.6515C116.837 16.7004 116.834 16.7512 116.843 16.8007C117.754 19.0202 118.65 21.2398 119.534 23.4537C118.366 23.8806 117.204 24.321 116.05 24.7826L117.302 26.1981C118.257 25.8145 119.219 25.4458 120.185 25.0876C120.505 25.893 120.824 26.6974 121.141 27.5006C121.188 27.6851 121.214 27.8741 121.219 28.0644C121.226 28.2401 121.198 28.4161 121.137 28.5837C121.249 28.5406 121.355 28.4999 121.455 28.4611C122.207 28.171 122.679 27.9893 123.531 27.6855C123.646 27.6541 123.748 27.5909 123.824 27.5047C123.855 27.4671 123.878 27.424 123.891 27.378C123.903 27.3321 123.906 27.2844 123.897 27.238L122.532 24.2381C123.49 23.8988 124.45 23.5662 125.411 23.2362L128.836 25.5217C128.954 25.5904 129.085 25.6383 129.222 25.663C129.356 25.6638 129.489 25.6418 129.615 25.5983L132.063 24.7593C131.806 24.7108 131.554 24.6398 131.312 24.5472C131.21 24.5062 131.112 24.4539 131.015 24.4026C130.868 24.3248 130.726 24.249 130.582 24.2174L128.724 23.018C128.618 22.7259 128.521 22.4571 128.428 22.2042C129.447 21.8554 130.465 21.5044 131.479 21.1463L134.809 23.4669C134.938 23.511 135.073 23.5406 135.21 23.5549C135.344 23.5537 135.476 23.5319 135.603 23.4902C135.816 23.4106 136.006 23.34 136.182 23.2744C136.809 23.0413 137.266 22.871 138.009 22.5852C137.759 22.5329 137.514 22.4634 137.276 22.3773C137.033 22.2805 136.796 22.1718 136.566 22.0517L133.85 20.2923C134.838 19.9277 135.823 19.5525 136.801 19.162L135.549 17.7465C134.375 18.2153 133.191 18.6624 132.003 19.0956L124.377 14.1549C124.259 14.0988 124.128 14.07 123.995 14.0711C123.834 14.0608 123.672 14.0832 123.521 14.1368C123.374 14.1818 123.247 14.2697 123.158 14.3872C123.122 14.4243 123.097 14.4689 123.083 14.5169C123.07 14.565 123.07 14.6151 123.082 14.6628L125.419 20.8975L118.149 16.286C118.03 16.2344 117.9 16.2059 117.767 16.2022C117.604 16.1886 117.438 16.2104 117.284 16.2659C117.141 16.3169 117.015 16.4036 116.921 16.5162C116.888 16.5565 116.864 16.6025 116.85 16.6515ZM129.711 19.9139L127.348 18.2664L127.347 18.2664C127.29 18.2538 127.223 18.2392 127.132 18.2757C127.041 18.3123 127.036 18.3301 127.036 18.4054C127.345 19.2552 127.585 19.9077 127.819 20.5426C127.822 20.5509 127.825 20.5593 127.828 20.5676C128.456 20.3513 129.084 20.1338 129.711 19.9139ZM123.589 22.0203L121.135 20.3818L121.135 20.3818C121.077 20.3692 121.02 20.3567 120.938 20.3953C120.857 20.434 120.83 20.4565 120.842 20.525L121.805 22.641C122.399 22.4322 122.994 22.2256 123.589 22.0203Z" fill="white"/>
</g>
<g opacity="0.5">
<path d="M813.851 -19.5123C813.503 -19.5159 813.184 -19.3407 813.009 -19.0492L798.421 5.23623C798.234 5.54727 798.24 5.94152 798.436 6.26129C798.632 6.58107 798.986 6.77417 799.357 6.76335C811.583 6.4068 818.989 13.5987 826.668 21.2934C826.803 21.4283 826.937 21.5634 827.072 21.6985C834.555 29.2008 842.396 37.0616 855.166 37.1972C855.514 37.2009 855.832 37.026 856.008 36.735C860.873 28.6547 865.736 20.559 870.597 12.4478C870.783 12.1368 870.777 11.7427 870.581 11.4232C870.385 11.1037 870.031 10.9108 869.661 10.9216C857.434 11.2781 850.028 4.08437 842.349 -3.61134C842.215 -3.74577 842.08 -3.88036 841.946 -4.01506C834.462 -11.5186 826.621 -19.3806 813.851 -19.5123Z" fill="#22D317" stroke="black" stroke-width="2" stroke-linecap="round" stroke-linejoin="round"/>
<path d="M814.221 -13.1113L806.284 0.130331C808.35 0.212403 809.163 1.86152 808.233 3.29191L808.144 3.4267C825.885 8.38075 831.972 27.2985 849.275 32.9805L849.347 32.8397C850.239 31.3273 852.496 30.4813 854.516 30.6466C854.648 30.6323 854.773 30.6814 854.892 30.6921L862.85 17.4247C862.718 17.4309 862.587 17.4295 862.455 17.4203C860.41 17.3125 859.622 15.7155 860.531 14.2013C842.995 8.99036 836.86 -9.91432 819.416 -15.3543C818.509 -13.8246 816.268 -12.9881 814.221 -13.1113Z" fill="white"/>
<path d="M848.302 21.5123C848.625 21.0214 849.135 20.6644 849.734 20.5114C850.332 20.3585 850.976 20.4205 851.537 20.6855C851.808 20.7824 852.055 20.933 852.259 21.1268C852.464 21.3205 852.621 21.5527 852.72 21.807C852.819 22.0612 852.858 22.3315 852.833 22.5986C852.808 22.8657 852.72 23.1232 852.576 23.3531C852.264 23.8661 851.763 24.2538 851.162 24.4452C850.562 24.6365 849.902 24.6188 849.305 24.3951C849.026 24.2746 848.776 24.1012 848.572 23.8864C848.367 23.6716 848.213 23.42 848.118 23.1482C848.023 22.8763 847.991 22.5901 848.023 22.3083C848.054 22.0265 848.15 21.7553 848.302 21.5123V21.5123Z" fill="#00DD6D"/>
<path d="M826.45 0.98585C829.292 -3.90389 835.76 -3.92341 839.493 0.263672C843.435 4.67032 845.171 11.6494 842.176 16.8056C839.335 21.703 832.866 21.7148 829.152 17.4866C825.216 13.0637 823.418 6.12245 826.45 0.98585Z" fill="#22D317"/>
<path fill-rule="evenodd" clip-rule="evenodd" d="M835.259 1.57753C835.213 1.58253 835.17 1.59619 835.13 1.61766C833.528 2.96453 831.922 4.29993 830.316 5.62503C829.605 4.89701 828.884 4.17719 828.147 3.47011L827.328 4.82243C827.939 5.40758 828.539 6.0015 829.131 6.60161C828.546 7.08288 827.962 7.56283 827.378 8.04151C827.236 8.13239 827.084 8.20915 826.924 8.27056C826.778 8.32902 826.621 8.36214 826.46 8.3683C826.531 8.43774 826.597 8.50307 826.66 8.56531C827.132 9.03098 827.428 9.32282 827.942 9.85753C828.003 9.93241 828.088 9.98842 828.183 10.018C828.225 10.0298 828.268 10.0335 828.311 10.0288C828.353 10.0241 828.394 10.0112 828.431 9.99082L830.557 8.0708C831.133 8.67242 831.704 9.27804 832.273 9.88519L831.372 13.1043C831.35 13.2121 831.349 13.3231 831.369 13.4319C831.409 13.5304 831.468 13.6217 831.542 13.7012L832.991 15.2486C832.954 15.0441 832.938 14.8371 832.943 14.6304C832.947 14.5433 832.962 14.4549 832.976 14.3681C832.998 14.2365 833.019 14.1083 833.002 13.9928L833.456 12.2596C833.672 12.0924 833.87 11.9384 834.056 11.7932C834.658 12.4367 835.262 13.079 835.87 13.7171L834.912 16.8766C834.913 16.9851 834.929 17.0933 834.958 17.1988C835 17.2967 835.058 17.3877 835.132 17.4681C835.263 17.6009 835.38 17.7192 835.489 17.8291C835.875 18.2193 836.157 18.5045 836.623 18.9641C836.592 18.7642 836.577 18.5627 836.578 18.3612C836.586 18.1528 836.606 17.9451 836.639 17.7389L837.308 15.2025C837.915 15.8201 838.53 16.4314 839.156 17.0336L839.975 15.6813C839.224 14.9584 838.488 14.2226 837.762 13.4786L839.64 6.35878C839.652 6.25507 839.637 6.14984 839.596 6.05197C839.556 5.93061 839.489 5.81835 839.398 5.7231C839.315 5.62895 839.203 5.56196 839.076 5.53241C839.034 5.51727 838.989 5.51189 838.944 5.5168C838.9 5.5217 838.857 5.53674 838.821 5.56054L834.252 9.17968L835.96 2.42271C835.967 2.31903 835.952 2.21465 835.915 2.11586C835.878 1.9913 835.809 1.87609 835.716 1.77931C835.629 1.68955 835.518 1.62352 835.395 1.58863C835.35 1.57631 835.304 1.57253 835.259 1.57753ZM836.379 12.0403L837.059 9.79855C837.053 9.75253 837.045 9.69881 836.987 9.64289C836.928 9.58697 836.912 9.58879 836.848 9.61139C836.222 10.0979 835.743 10.4735 835.276 10.839C835.271 10.8437 835.265 10.8483 835.259 10.853C835.631 11.2497 836.004 11.6457 836.379 12.0403ZM832.751 8.17402L833.396 5.8683L833.396 5.8683C833.39 5.82227 833.383 5.77625 833.326 5.728C833.268 5.67975 833.241 5.66712 833.187 5.69649L831.689 7.04946C832.044 7.42316 832.398 7.79821 832.751 8.17402Z" fill="white"/>
</g>
<g opacity="0.6">
<path d="M967.013 76.6016C969.876 73.5078 972.056 68.6292 971.481 64.4829" stroke="black" stroke-width="2" stroke-linecap="round" stroke-linejoin="round"/>
<path d="M973.784 74.6664C975.22 73.1138 976.314 70.6654 976.026 68.5845" stroke="black" stroke-width="2" stroke-linecap="round" stroke-linejoin="round"/>
</g>
</g>
</svg>
