<svg width="36" height="36" xmlns="http://www.w3.org/2000/svg">
    <g fill="none" fill-rule="evenodd">
        <rect fill="#E3E3E3" width="36" height="36" rx="18"/>
        <path d="M7 6h24v24H7z"/>
        <path d="M10.61 7.814 20.791 18 10.61 28.186a.996.996 0 0 1-.61-.92V8.734a1 1 0 0 1 .61-.92zM21.5 18.707l2.301 2.302-10.937 6.333 8.635-8.635zm3.198-3.198 2.807 1.626a1 1 0 0 1 0 1.73l-2.808 1.626L22.207 18l2.491-2.491zM12.864 8.658l10.938 6.332-2.303 2.303-8.635-8.635z" fill="#B4B4B4" fill-rule="nonzero"/>
    </g>
</svg>
