<svg width="36" height="36" xmlns="http://www.w3.org/2000/svg">
    <g fill="none" fill-rule="evenodd">
        <rect fill="#E3E3E3" width="36" height="36" rx="18"/>
        <path d="M6 6h24v24H6z"/>
        <path fill="#F4F4F4" fill-rule="nonzero" d="M14 13h9v9h-9z"/>
        <path d="M18.04 9.01c.59 0 7.54.02 9.34.5a3.02 3.02 0 0 1 2.12 2.15c.5 1.9.5 5.85.5 5.85v.04c0 .43-.03 4.03-.5 5.8a3.02 3.02 0 0 1-2.12 2.16c-1.76.48-8.45.5-9.3.51h-.17c-.85 0-7.54-.03-9.29-.5a3.02 3.02 0 0 1-2.12-2.17c-.42-1.61-.49-4.7-.5-5.6v-.5c.01-.9.08-3.99.5-5.6a3.02 3.02 0 0 1 2.12-2.14c1.8-.49 8.75-.51 9.34-.51l.08.01zm-2.5 4.9v7.18l6.28-3.58-6.28-3.59v-.01z" fill="#B4B4B4" fill-rule="nonzero"/>
    </g>
</svg>
