<svg width="36" height="36" viewBox="0 0 36 36" fill="none" xmlns="http://www.w3.org/2000/svg">
<path d="M36 18C36 8.05887 27.9411 0 18 0C8.05887 0 0 8.05887 0 18C0 27.9411 8.05887 36 18 36C27.9411 36 36 27.9411 36 18Z" fill="#E3E3E3"/>
<mask id="mask0_2206_2073" style="mask-type:alpha" maskUnits="userSpaceOnUse" x="6" y="6" width="24" height="24">
<path d="M6 6H30V30H6V6Z" fill="white"/>
</mask>
<g mask="url(#mask0_2206_2073)">
<path fill-rule="evenodd" clip-rule="evenodd" d="M13 8H23C25.7614 8 28 10.2386 28 13V23C28 25.7614 25.7614 28 23 28H13C10.2386 28 8 25.7614 8 23V13C8 10.2386 10.2386 8 13 8ZM23 18C23 20.7614 20.7614 23 18 23C15.2386 23 13 20.7614 13 18C13 15.2386 15.2386 13 18 13C20.7614 13 23 15.2386 23 18Z" fill="#B4B4B4"/>
<path d="M18 21C19.6569 21 21 19.6569 21 18C21 16.3431 19.6569 15 18 15C16.3431 15 15 16.3431 15 18C15 19.6569 16.3431 21 18 21Z" fill="#B4B4B4"/>
<path d="M25 12C25 12.5523 24.5523 13 24 13C23.4477 13 23 12.5523 23 12C23 11.4477 23.4477 11 24 11C24.5523 11 25 11.4477 25 12Z" fill="#E3E3E3"/>
</g>
</svg>
